<?xml version="1.0"?>
<svg xmlns="http://www.w3.org/2000/svg" xmlns:xlink="http://www.w3.org/1999/xlink" version="1.1" id="Capa_1" x="0px" y="0px" viewBox="0 0 59 59" style="enable-background:new 0 0 59 59;" xml:space="preserve" width="512px" height="512px" class=""><g><path style="fill:#FFFFFF" d="M39.503,52H1.5V0.003h38.003C41.158,0.003,42.5,1.345,42.5,3v46.003C42.5,50.658,41.158,52,39.503,52  z" data-original="#556080" class="" data-old_color="#556080"/><rect x="31.5" y="0.003" style="fill:#FDFDFD" width="5" height="51.997" data-original="#D75A4A" class="" data-old_color="#D75A4A"/><g>
	<rect x="1.5" y="17.01" style="fill:#FFFFFF" width="30" height="18" data-original="#424A60" class="" data-old_color="#424A60"/>
	<rect x="36.5" y="17.01" style="fill:#FFFFFF" width="6" height="18" data-original="#424A60" class="" data-old_color="#424A60"/>
</g><polygon style="fill:#E9E9E9" points="11.5,57 8.5,55 5.5,57 5.5,52 11.5,52 " data-original="#EBBA16" class="" data-old_color="#EBBA16"/><rect x="49.5" y="7" style="fill:#FDFEFF" width="4" height="4" data-original="#E0E1E2" class="active-path" data-old_color="#E0E1E2"/><path style="fill:#FDFDFD" d="M53.5,0h-2.015c-0.274,0-0.535,0.056-0.773,0.156c-0.119,0.05-0.232,0.111-0.337,0.183  C49.847,0.696,49.5,1.3,49.5,1.985V7h4V0z" data-original="#D75A4A" class="" data-old_color="#D75A4A"/><path style="fill:#FDFDFD" d="M55.515,0L55.515,0c0.274,0,0.535,0.056,0.773,0.156C56.05,0.056,55.789,0,55.515,0z" data-original="#D75A4A" class="" data-old_color="#D75A4A"/><rect x="53.5" y="11" style="fill:#F7F7F7" width="4" height="38" data-original="#DB7B1B" class="" data-old_color="#DB7B1B"/><rect x="53.5" y="7" style="fill:#FFFFFF" width="4" height="4" data-original="#C4C4C4" class="" data-old_color="#C4C4C4"/><path style="fill:#FDFDFD" d="M57.5,1.985L57.5,1.985c0-0.685-0.347-1.289-0.875-1.646C57.153,0.696,57.5,1.3,57.5,1.985z" data-original="#D75A4A" class="" data-old_color="#D75A4A"/><path style="fill:#FFFFFF" d="M57.5,7V1.985c0-0.685-0.347-1.289-0.875-1.646c-0.105-0.071-0.219-0.133-0.337-0.183  C56.05,0.056,55.789,0,55.515,0H53.5v7H57.5z" data-original="#B74C44" class="" data-old_color="#B74C44"/><polygon style="fill:#F3F3F3" points="57.5,49 49.5,49 53.5,56 " data-original="#EBD6BD" class="" data-old_color="#EBD6BD"/><path style="fill:#F7F7F7" d="M52.5,58c0,0.553,0.447,1,1,1s1-0.447,1-1v-4h-2V58z" data-original="#4C4C4C" class="" data-old_color="#4C4C4C"/><rect x="49.5" y="11" style="fill:#EFEFEF" width="4" height="38" data-original="#ED8A19" class="" data-old_color="#ED8A19"/></g> </svg>
